 <svg id="e0DQ82qcIov1" xmlns="http://www.w3.org/2000/svg" xmlns:xlink="http://www.w3.org/1999/xlink" viewBox="0 0 400 400" shape-rendering="geometricPrecision" text-rendering="geometricPrecision"><g id="e0DQ82qcIov2" transform="matrix(.5 0 0 0.5 25.964331 264.154351)"><g><rect id="e0DQ82qcIov4" width="5.05" height="5.05" rx="0" ry="0" transform="matrix(.936393-.282895 0.286251 0.981448 64.977577 368.672426)" opacity="0.977955" fill="#c072ff"/><rect id="e0DQ82qcIov5" width="5.36" height="5.36" rx="0" ry="0" transform="matrix(-.52026 0.880062-.736215-.676747 48.193974 354.593138)" opacity="0.495795" fill="#c072ff"/><rect id="e0DQ82qcIov6" width="5.46" height="5.46" rx="0" ry="0" transform="matrix(.273897-.984967 0.886688 0.462368 73.798015 371.925674)" opacity="0.979768" fill="#ff648b"/><rect id="e0DQ82qcIov7" width="5.54" height="5.54" rx="0" ry="0" transform="matrix(-.594399 0.776885-.805945-.628994 30.669552 351.24617)" opacity="0.586336" fill="#ff648b"/><rect id="e0DQ82qcIov8" width="5.73" height="5.73" rx="0" ry="0" transform="matrix(.826776-.60135 0.407215 0.913332 35.887649 362.339551)" opacity="0.723288" fill="#00cfff"/><rect id="e0DQ82qcIov9" width="5.6" height="5.6" rx="0" ry="0" transform="matrix(.119809-1.015296 0.947042 0.321109 56.065517 361.261792)" opacity="0.567307" fill="#00cfff"/><rect id="e0DQ82qcIov10" width="5.07" height="5.07" rx="0" ry="0" transform="matrix(-.904592 0.476332-.271776-.96236 53.206615 363.602305)" opacity="0.713493" fill="#fbff45"/><rect id="e0DQ82qcIov11" width="4.4" height="4.4" rx="0" ry="0" transform="matrix(1.002242-.201723-.010821 0.999941 48.410803 340.641092)" opacity="0.659697" fill="#fbff45"/><rect id="e0DQ82qcIov12" width="4.79" height="4.79" rx="0" ry="0" transform="matrix(-.728809-.71695 0.834175-.5515 31.057268 346.447909)" opacity="0.842201" fill="#fbff45"/></g><rect id="e0DQ82qcIov13" width="4.31" height="4.31" rx="0" ry="0" transform="matrix(.917199-.398429 0.398429 0.917199 43.298438 368.953002)" opacity="0.673915" fill="#bdff34"/><rect id="e0DQ82qcIov14" width="4.1" height="4.1" rx="0" ry="0" transform="matrix(-.081417-.99668 0.99668-.081417 26.811226 362.919013)" opacity="0.90469" fill="#bdff34"/><rect id="e0DQ82qcIov15" width="4.19" height="4.19" rx="0" ry="0" transform="matrix(-.99218 0.124814-.335708-.96565 53.592025 335.720453)" opacity="0.38981" fill="#bdff34"/><rect id="e0DQ82qcIov16" width="5" height="5" rx="0" ry="0" transform="matrix(-.208082-.978111 0.978111-.208082 64.721271 330.656082)" opacity="0.89513" fill="#bdff34"/><rect id="e0DQ82qcIov17" width="5.49" height="5.49" rx="0" ry="0" transform="matrix(.999714 0.023909-.023909 0.999714 39.643755 341.438936)" opacity="0.729057" fill="#bdff34"/><rect id="e0DQ82qcIov18" width="5.38" height="5.38" rx="0" ry="0" transform="matrix(-.951755-.306858 0.104556-1.01698 35.098205 371.498135)" opacity="0.815943" fill="#0af"/><rect id="e0DQ82qcIov19" width="4.4" height="4.4" rx="0" ry="0" transform="matrix(.696163 0.717883-.717883 0.696163 69.474594 340.093007)" opacity="0.851205" fill="#0af"/><rect id="e0DQ82qcIov20" width="4.33" height="4.33" rx="0" ry="0" transform="matrix(.734915 0.67816-.67816 0.734915 57.020715 379.065431)" opacity="0.55536" fill="#0af"/><rect id="e0DQ82qcIov21" width="5.22" height="5.22" rx="0" ry="0" transform="matrix(-.775496-.631353 0.631353-.775496 35.902264 339.066393)" opacity="0.614565" fill="#0af"/><rect id="e0DQ82qcIov22" width="4.83" height="4.83" rx="0" ry="0" transform="matrix(.840567 0.541708-.36304 0.95571 70.962808 331.267633)" opacity="0.766126" fill="#fdb168"/><rect id="e0DQ82qcIov23" width="4.2" height="4.2" rx="0" ry="0" transform="matrix(-.852823-.522201 0.522201-.852823 81.806291 363.566238)" opacity="0.559862" fill="#fdb168"/><rect id="e0DQ82qcIov24" width="4.54" height="4.54" rx="0" ry="0" transform="matrix(.598884 0.800836-.800836 0.598884 80.494029 335.455588)" opacity="0.950555" fill="#fdb168"/><rect id="e0DQ82qcIov25" width="5.74" height="5.74" rx="0" ry="0" transform="matrix(.999985-.00541 0.00541 0.999985 39.928055 326.929249)" opacity="0.677693" fill="#fdb168"/><path id="e0DQ82qcIov26" d="M65.36,380.69l-1,.55-.54-1c-.291171-.535898-.846123-.875751-1.455811-.891538s-1.181484.294889-1.5.815-.33536,1.17064-.044189,1.706538l2.18,4l4-2.18c.828427-.452874,1.132873-1.491573.68-2.32s-1.491573-1.132873-2.32-.68Z" transform="matrix(.913672-.406453 0.406453 0.913672-169.96593 59.145085)" fill="#ff648b"/><path id="e0DQ82qcIov27" d="M73.25,326l-1,.48-.48-1c-.403168-.828427-1.401573-1.173168-2.23-.77s-1.173168,1.401573-.77,2.23l1.95,4l4-1.95c.535898-.260804.891952-.787695.934038-1.382199s-.236188-1.1663-.73-1.5-1.12814-.378605-1.664038-.117801Z" transform="translate(-20.000595 0.001253)" fill="#ffa4bb"/><path id="e0DQ82qcIov28" d="M59.79,359.68l-1.09.91-.92-1.09c-.474847-.63703-1.263543-.958542-2.048422-.835037s-1.436723.671692-1.692987,1.423766-.07476,1.584221.471409,2.161271l3.66,4.36L62.53,363c.902986-.75663,1.02163-2.102014.265-3.005s-2.102014-1.02163-3.005-.265Z" transform="translate(-19.99905 0.000039)" fill="#e0b9ff"/><polygon id="e0DQ82qcIov29" points="84.7,374.79 82.18,375.73 82.97,373.16 81.3,371.05 83.99,371 85.48,368.76 86.36,371.31 88.95,372.03 86.8,373.65 86.91,376.34 84.7,374.79" transform="translate(-20.000002 0.000003)" fill="#fdb168"/><polygon id="e0DQ82qcIov30" points="86.87,345.57 84.55,347.61 84.34,344.52 81.69,342.95 84.55,341.8 85.23,338.79 87.21,341.16 90.28,340.88 88.64,343.49 89.86,346.32 86.87,345.57" transform="translate(-20.000001-.000003)" fill="#fed3aa"/><polygon id="e0DQ82qcIov31" points="52.58,342.08 50.64,344.06 50.25,341.32 47.78,340.09 50.26,338.87 50.67,336.14 52.59,338.12 55.32,337.66 54.02,340.11 55.3,342.56 52.58,342.08" transform="translate(-20 0.000006)" fill="#fed3aa"/><circle id="e0DQ82qcIov32" r="2.84" transform="matrix(1 0 0.212557 1 21.079994 358.87)" fill="#00cfff"/><circle id="e0DQ82qcIov33" r="3.37" transform="matrix(1 0 0.212557 1 81.819993 336.5)" fill="#00cfff"/></g><g id="e0DQ82qcIov34" transform="matrix(.5 0 0 0.5 169.566513 264.155382)"><g><rect id="e0DQ82qcIov36" width="5.33" height="5.33" rx="0" ry="0" transform="matrix(-.259082-.988968 0.998906-.046758 337.859707 326.538286)" opacity="0.494701" fill="#c072ff"/><rect id="e0DQ82qcIov37" width="5.36" height="5.36" rx="0" ry="0" transform="matrix(-.52026 0.880062-.736215-.676747 335.40214 354.604187)" opacity="0.495795" fill="#c072ff"/><rect id="e0DQ82qcIov38" width="5.54" height="5.54" rx="0" ry="0" transform="matrix(-.594399 0.776885-.805945-.628994 317.848305 351.239972)" opacity="0.586336" fill="#ff648b"/><rect id="e0DQ82qcIov39" width="5.6" height="5.6" rx="0" ry="0" transform="matrix(.105301-.972508 1.015296 0.119809 343.104343 361.714571)" opacity="0.567307" fill="#00cfff"/><rect id="e0DQ82qcIov40" width="4.4" height="4.4" rx="0" ry="0" transform="matrix(.957064-.202212 0.201723 1.002242 335.225782 340.62479)" opacity="0.659697" fill="#fbff45"/></g><rect id="e0DQ82qcIov41" width="4.31" height="4.31" rx="0" ry="0" transform="matrix(.917199-.398429 0.398429 0.917199 330.488863 368.958161)" opacity="0.673915" fill="#bdff34"/><rect id="e0DQ82qcIov42" width="4.19" height="4.19" rx="0" ry="0" transform="matrix(-.99218 0.124814-.124814-.99218 340.346061 335.782621)" opacity="0.38981" fill="#bdff34"/><rect id="e0DQ82qcIov43" width="4.4" height="4.4" rx="0" ry="0" transform="matrix(.696163 0.717883-.569909 0.848753 356.330011 339.76603)" opacity="0.851205" fill="#0af"/><rect id="e0DQ82qcIov44" width="4.33" height="4.33" rx="0" ry="0" transform="matrix(.734915 0.67816-.67816 0.734915 344.231055 379.046296)" opacity="0.55536" fill="#0af"/><rect id="e0DQ82qcIov45" width="5.22" height="5.22" rx="0" ry="0" transform="matrix(-.775496-.631353 0.466516-.909694 323.53011 339.412127)" opacity="0.614565" fill="#0af"/><rect id="e0DQ82qcIov46" width="5.16" height="5.16" rx="0" ry="0" transform="matrix(-.587644-.80912 0.80912-.587644 368.660951 351.715923)" opacity="0.561724" fill="#fdb168"/><rect id="e0DQ82qcIov47" width="4.83" height="4.83" rx="0" ry="0" transform="matrix(.840567 0.541708-.541708 0.840567 358.58508 331.55421)" opacity="0.766126" fill="#fdb168"/><rect id="e0DQ82qcIov48" width="4.2" height="4.2" rx="0" ry="0" transform="matrix(-.852823-.522201 0.340928-.96382 369.386316 363.793275)" opacity="0.559862" fill="#fdb168"/><rect id="e0DQ82qcIov49" width="4.54" height="4.54" rx="0" ry="0" transform="matrix(.598884 0.800836-.673539 0.769107 367.404518 335.079243)" opacity="0.950555" fill="#fdb168"/><rect id="e0DQ82qcIov50" width="5.74" height="3" rx="0" ry="0" transform="matrix(.915917 0.401368-.401368 0.915917 328.522583 325.989372)" opacity="0.677693" fill="#fdb168"/><path id="e0DQ82qcIov51" d="M312.56,380.69l-1,.55-.55-1c-.291171-.535898-.846123-.875751-1.455811-.891538s-1.181484.294889-1.5.815-.33536,1.17064-.044189,1.706538l2.18,4l4-2.18c.828427-.452873,1.132873-1.491573.68-2.32s-1.491573-1.132873-2.32-.68Z" transform="translate(19.999862-.000002)" fill="#ffa4bb"/><path id="e0DQ82qcIov52" d="M320.45,326l-1,.48-.49-1c-.403168-.828427-1.401573-1.173168-2.23-.77s-1.173168,1.401573-.77,2.23l1.94,4l4-1.95c.828427-.400406,1.175406-1.396573.775-2.225s-1.396573-1.175406-2.225-.775Z" transform="translate(20.00151-.00183)" fill="#ff648b"/><path id="e0DQ82qcIov53" d="M307,359.68l-1.1.91-.9-1.09c-.77893-.822972-2.06436-.896096-2.931595-.16677s-1.015618,2.008256-.338405,2.91677l3.65,4.36l4.37-3.66c.902986-.75663,1.02163-2.102014.265-3.005s-2.102014-1.02163-3.005-.265Z" transform="translate(19.998733 0.000008)" fill="#c072ff"/><polygon id="e0DQ82qcIov54" points="331.9,374.79 329.38,375.73 330.17,373.16 328.49,371.05 331.19,371 332.68,368.76 333.55,371.31 336.15,372.03 333.99,373.65 334.11,376.34 331.9,374.79" transform="matrix(.962685-.270623 0.270623 0.962685-68.420318 103.835142)" fill="#fdb168"/><polygon id="e0DQ82qcIov55" points="334.06,345.57 331.74,347.61 331.54,344.52 328.88,342.95 331.75,341.8 332.43,338.79 334.41,341.16 337.48,340.88 335.84,343.49 337.06,346.32 334.06,345.57" transform="matrix(.772735 0.634728-.634728 0.772735 313.558859-133.481571)" fill="#fed3aa"/><polygon id="e0DQ82qcIov56" points="319.78,342.08 317.84,344.06 317.45,341.32 314.98,340.09 317.46,338.87 317.87,336.14 319.79,338.12 322.52,337.66 321.22,340.11 322.5,342.56 319.78,342.08" transform="translate(0 0.000006)" fill="#cfff6b"/><circle id="e0DQ82qcIov57" r="2.51" transform="translate(350.29 359.83)" fill="#0af"/><circle id="e0DQ82qcIov58" r="3.37" transform="translate(369.01 336.5)" fill="#00cfff"/></g><path id="e0DQ82qcIov74" d="M102.82,10c0,2-2,2-2,4s2,2,2,4-2,2-2,4s2,2,2,4-2,2-2,4s2,2,2,4-2,2-2,4s2,2,2,4-2,2-2,4s2,2,2,4-2,2-2,4" transform="matrix(1.993734 0.158196-.158196 1.993734-117.819725 332.826905)" fill="none" stroke="#ff648b" stroke-linecap="round" stroke-miterlimit="10" stroke-dashoffset="153.37" stroke-dasharray="16,85.68"/><path id="e0DQ82qcIov75" d="M89.77,10c0,2-2,2-2,4s2,2,2,4-2,2-2,4s2,2,2,4-2,2-2,4s2,2,2,4-2,2-2,4s2,2,2,4-2,2-2,4s2,2,2,4-2,2-2,4" transform="matrix(1.993734 0.158196-.158196 1.993734-181.43862 318.626535)" fill="none" stroke="#00cfff" stroke-linecap="round" stroke-miterlimit="10" stroke-dashoffset="153.37" stroke-dasharray="16,85.68"/><path id="e0DQ82qcIov76" d="M96.3,10c0,2-2,2-2,4s2,2,2,4-2,2-2,4s2,2,2,4-2,2-2,4s2,2,2,4-2,2-2,4s2,2,2,4-2,2-2,4s2,2,2,4-2,2-2,4" transform="matrix(1.987757-.220959 0.220959 1.987757 190.754493 289.449147)" fill="none" stroke="#fbff45" stroke-linecap="round" stroke-miterlimit="10" stroke-dashoffset="153.37" stroke-dasharray="16,85.68"/><path id="e0DQ82qcIov77" d="M109.34,10c0,2-2,2-2,4s2,2,2,4-2,2-2,4s2,2,2,4-2,2-2,4s2,2,2,4-2,2-2,4s2,2,2,4-2,2-2,4s2,2,2,4-2,2-2,4" transform="matrix(1.987757-.220959 0.220959 1.987757 117.393384 310.099187)" fill="none" stroke="#0af" stroke-linecap="round" stroke-miterlimit="10" stroke-dashoffset="153.37" stroke-dasharray="16,85.68"/>
</svg>