<svg id="eaLTNgZdjJ01" xmlns="http://www.w3.org/2000/svg" xmlns:xlink="http://www.w3.org/1999/xlink" viewBox="0 0 112 112" shape-rendering="geometricPrecision" text-rendering="geometricPrecision" width="112" height="112"><defs><linearGradient id="eaLTNgZdjJ04-stroke" x1="0.489655" y1="0" x2="0.5" y2="0.999021" spreadMethod="pad" gradientUnits="objectBoundingBox" gradientTransform="translate(0 0)"><stop id="eaLTNgZdjJ04-stroke-0" offset="0%" stop-color="#7ed348"/><stop id="eaLTNgZdjJ04-stroke-1" offset="100%" stop-color="#3e65d3"/></linearGradient><linearGradient id="eaLTNgZdjJ08-fill" x1="0.397084" y1="0.369357" x2="0.397084" y2="1" spreadMethod="pad" gradientUnits="objectBoundingBox" gradientTransform="translate(0 0)"><stop id="eaLTNgZdjJ08-fill-0" offset="0%" stop-color="#67a25c"/><stop id="eaLTNgZdjJ08-fill-1" offset="100%" stop-color="#66a15d"/></linearGradient><linearGradient id="eaLTNgZdjJ010-fill" x1="0.45542" y1="0.923988" x2="0.34187" y2="0.226905" spreadMethod="pad" gradientUnits="objectBoundingBox" gradientTransform="translate(0 0)"><stop id="eaLTNgZdjJ010-fill-0" offset="0%" stop-color="#649b5f"/><stop id="eaLTNgZdjJ010-fill-1" offset="100%" stop-color="#7ed348"/></linearGradient><linearGradient id="eaLTNgZdjJ013-fill" x1="0.487435" y1="-0.046329" x2="0.487435" y2="1" spreadMethod="pad" gradientUnits="objectBoundingBox" gradientTransform="translate(0 0)"><stop id="eaLTNgZdjJ013-fill-0" offset="0%" stop-color="#6bab59"/><stop id="eaLTNgZdjJ013-fill-1" offset="100%" stop-color="#66a05d"/></linearGradient><linearGradient id="eaLTNgZdjJ015-fill" x1="0.34864" y1="0.226185" x2="0.586154" y2="0.959201" spreadMethod="pad" gradientUnits="objectBoundingBox" gradientTransform="translate(0 0)"><stop id="eaLTNgZdjJ015-fill-0" offset="0%" stop-color="#7ed348"/><stop id="eaLTNgZdjJ015-fill-1" offset="100%" stop-color="#61b85c"/></linearGradient></defs><g transform="translate(-88 0)" mask="url(#eaLTNgZdjJ029)"><g transform="translate(-12.5-12.5)"><rect width="278" height="278" rx="50" ry="50" transform="translate(17.5 17.5)" fill="#1d3370" stroke="url(#eaLTNgZdjJ04-stroke)" stroke-width="10"/><g transform="matrix(.75 0 0 0.75-61.608547-5.579293)"><path d="M277.4,281.3c0,0-12.7,6.9-9.1,13.8c3.7,6.9,14.2,5.2,14.2,5.2l-5.1-19Z" fill="#7ed348"/><path d="M282.6,304c-2.2.3-13.2,1.2-17.6-7.2-4.2-7.9,4.7-15.5,10.5-18.7c1.7-.9,4-.3,5,1.4.9,1.7.3,4-1.4,5-3.4,1.8-9,6.4-7.6,9c2.4,4.4,10.3,3.3,10.4,3.3c2-.3,3.8,1,4.2,3c.3,2-1,3.8-3,4.2-.2-.1-.3,0-.5,0Z" fill="#1d3370"/><path d="M342.5,317.2c0-15.7-13.3-28.4-29.2-27.3-13.3.8-24.3,11.5-25.5,24.7-.8,8.3,2.2,15.9,7.4,21.4v0c-32.1,0-24.4,21.3-24.4,21.3h41.4c4.5,0,8.7-2.1,11.4-5.8l12.5-16.8v0c4.1-4.8,6.4-10.9,6.4-17.5Z" fill="url(#eaLTNgZdjJ08-fill)"/><path d="M312.3,360.8h-41.4c-1.5,0-2.9-.9-3.4-2.4-.1-.4-3.3-9.2,2-16.7c3.5-5.1,9.9-8.1,18.8-9.2-3.2-5.5-4.6-11.9-4-18.4c1.4-15,13.8-27.1,28.8-28c8.7-.6,16.9,2.4,23.3,8.3c6.2,5.9,9.8,14.1,9.8,22.6c0,7.2-2.5,14.2-7.1,19.7l-12.4,16.7c-3.4,4.7-8.8,7.4-14.4,7.4Zm-38.6-7.2h38.5c3.4,0,6.5-1.6,8.5-4.3l12.5-16.8c0,0,.1-.1.1-.1c3.5-4.2,5.5-9.6,5.5-15.2c0-6.7-2.7-12.8-7.5-17.3-4.9-4.5-11.2-6.8-17.8-6.4-11.5.8-21.1,10-22.1,21.5-.6,6.9,1.6,13.5,6.4,18.6c1,1,1.3,2.6.7,3.9s-1.9,2.2-3.4,2.2c-10,0-16.9,2.2-19.8,6.4-1.7,2.4-1.8,5.4-1.6,7.5Z" fill="#1d3370"/><path d="M347.2,240.5l6.4,13.1c4.5,9.3,14.4,14.8,24.6,13.8l24.5-2.3c11.2-1,18.9,11,13.3,20.7-11.6,20-33.9,45.9-71.2,45.4-60.8-.8-89.4-57.3-40.9-100.5" fill="url(#eaLTNgZdjJ010-fill)"/><path d="M345.9,334.9c-.4,0-.8,0-1.2,0-15.8-.2-30.4-4.2-42.1-11.3-11.3-7-19.5-16.7-23.7-28-4-10.6-4.2-22.2-.7-33.5c3.8-12.2,11.6-23.6,23.2-33.9c1.5-1.3,3.8-1.2,5.1.3s1.2,3.8-.3,5.1c-10.6,9.4-17.7,19.8-21.1,30.6-3.1,9.8-2.9,19.8.5,28.8c3.7,9.8,10.9,18.2,20.8,24.4c10.6,6.5,23.8,10.1,38.4,10.3.3,0,.7,0,1,0c19.3,0,46.2-7.7,67-43.6c1.9-3.4,1.8-7.3-.2-10.6-2.1-3.3-5.7-5.1-9.5-4.7l-24.5,2.3c-11.7,1.1-23-5.3-28.2-15.8L344,242.2c-.9-1.8-.1-4,1.7-4.9s4-.1,4.9,1.7l6.4,13.1c3.9,7.9,12.3,12.6,21.1,11.8l24.5-2.3c6.6-.6,12.8,2.5,16.3,8s3.7,12.5.4,18.1c-7.6,13-16.6,23.6-26.9,31.4-13.9,10.5-29.4,15.8-46.5,15.8Z" fill="#1d3370"/><path d="M308.4,294.1c-4,0-8.7-1-11.9-5.3-5.4-7.2,2.3-16.1,7.6-20.1c1.6-1.2,3.9-.9,5.1.7s.9,3.9-.7,5.1c-3,2.3-7.9,7.6-6.2,10c3,4,10.7,1.7,10.8,1.7c1.9-.6,4,.5,4.5,2.4.6,1.9-.4,3.9-2.4,4.5-.1.1-3.1,1-6.8,1Z" fill="#1d3370"/><path d="M328.9,303c-2.1,3.4-3.5,7.4-3.9,11.6-.8,8.3,2.2,15.9,7.4,21.4v0c-32.1,0-24.4,21.3-24.4,21.3h41.4c4.5,0,8.7-2.1,11.4-5.8l12.5-16.8v0c4-4.8,6.3-10.9,6.3-17.5c0-5.1-1.4-10-3.9-14.1" fill="url(#eaLTNgZdjJ013-fill)"/><path d="M349.5,360.8h-41.5c-1.5,0-2.9-.9-3.4-2.4-.1-.4-3.3-9.2,2-16.7c3.5-5.1,9.9-8.1,18.8-9.2-3.2-5.5-4.6-11.9-4-18.4.4-4.6,1.9-9.2,4.4-13.2c1-1.7,3.3-2.3,5-1.2c1.7,1,2.3,3.3,1.2,5-1.9,3.1-3,6.5-3.4,10.1-.6,6.9,1.6,13.5,6.4,18.6c1,1,1.3,2.6.7,3.9s-1.9,2.2-3.4,2.2c-10,0-16.9,2.2-19.8,6.4-1.8,2.6-1.9,5.6-1.7,7.6h38.5c3.4,0,6.5-1.6,8.5-4.3l12.5-16.8c0,0,.1-.1.1-.1c3.5-4.2,5.5-9.6,5.5-15.2c0-4.3-1.2-8.5-3.4-12.2-1-1.7-.5-4,1.2-5s4-.5,5,1.2c2.9,4.8,4.4,10.3,4.4,16c0,7.2-2.5,14.2-7.1,19.7l-12.4,16.7c-3.1,4.6-8.5,7.3-14.1,7.3Z" fill="#1d3370"/><path d="M405.5,143.9c8.8,46.9-22.7,91.7-69.6,99.3l-91.4,15c-39,6.3-75.7-20.9-80.5-60.6-4.3-36,20.2-69.7,55.7-76.7.3,0,.6-.1.8-.1c16.3-3,31.2-10.7,43.1-22.2c12.6-12.2,29.2-20.6,48.2-23c44.2-5.6,85.6,24.6,93.7,68.3Z" transform="translate(0 0.000001)" fill="url(#eaLTNgZdjJ015-fill)"/><path d="M233.1,262.8c-15.8,0-31-5.1-43.9-14.7-16.1-12.1-26.3-29.9-28.7-49.9-4.6-37.9,21.1-73.3,58.5-80.7.3,0,.5-.1.8-.1c15.5-2.9,29.8-10.3,41.2-21.3c13.8-13.3,31.2-21.6,50.3-24v0c22.3-2.8,44.7,3,63,16.3c18.3,13.4,30.7,32.9,34.8,54.9c4.4,23.6-.7,47.4-14.5,67.1s-34.4,32.6-58.1,36.5l-91.4,15c-4,.6-8,.9-12,.9ZM312.3,79.1v0c-17.6,2.2-33.5,9.9-46.2,22-12.5,12-28,20.1-44.9,23.2-.2,0-.5.1-.7.1-33.7,6.7-56.9,38.6-52.8,72.7c2.2,18.1,11.4,34.1,25.9,45c14.5,11,32.4,15.3,50.4,12.4l91.4-15c21.7-3.5,40.7-15.4,53.3-33.5c12.7-18,17.4-39.9,13.3-61.6-3.8-20.3-15.2-38.1-32-50.4-16.8-12.1-37.3-17.4-57.7-14.9Z" fill="#1d3370"/><ellipse rx="13.1" ry="13.1" transform="translate(333.700012 144.600006)" fill="#1d3370"/><ellipse rx="13.1" ry="13.1" transform="translate(290.299988 123.099998)" fill="#1d3370"/><ellipse rx="5" ry="5" transform="translate(191.100006 156.100006)" fill="#1d3370"/><path d="M347.1,244.3c-.8,0-1.6-.2-2.3-.8-1.6-1.2-1.8-3.5-.6-5.1c6.8-8.5,10.3-17.3,10.1-25.4-.2-8.7-4.5-14.6-8-18-9.3-9-25.9-12.2-37.7-2.1-1.5,1.3-3.8,1.1-5.1-.4s-1.1-3.8.4-5.1c6.8-5.8,15.6-8.6,24.6-7.8c8.5.7,16.6,4.3,22.8,10.3c6.4,6.2,10,14.4,10.2,23c.3,9.8-3.8,20.3-11.7,30.1-.6.9-1.7,1.3-2.7,1.3Z" fill="#1d3370"/><ellipse rx="5" ry="5" transform="translate(205.899994 164.399994)" fill="#1d3370"/><path d="M205.4,225.5c0,0,.3-26.7,11.7-28.7s22.5,23.1,22.5,23.1-3.1,3.4-17.1,5.6c-14,2.3-17.1,0-17.1,0Z" fill="#fff"/><path d="M265.5,210.4c0,0,.3-29.4,6.8-31c6.6-1.7,26.5,13.4,26.5,13.4s-10.1,9.8-15.8,13.1c-5.6,3.3-17.5,4.5-17.5,4.5Z" fill="#fff"/><path d="M199.6,232.9c-8.7,0-17.3-.8-25.8-2.4-2-.4-3.3-2.3-2.9-4.2.4-2,2.3-3.3,4.2-2.9c15.8,3,32.4,3.1,49.3,0c13.6-2.4,27.4-6.8,41-13c23.3-10.6,38.3-23,38.4-23.1c1.5-1.3,3.8-1.1,5.1.5c1.3,1.5,1.1,3.8-.4,5.1-.6.5-15.7,13.1-39.9,24.1-14.2,6.5-28.6,11-42.8,13.6-8.8,1.5-17.5,2.3-26.2,2.3Z" fill="#1d3370"/><path d="M201.7,232.9c-2,0-3.6-1.6-3.6-3.6c0-.3-.1-8.6,1.7-17.5c2.6-12.9,7.9-20.3,15.7-22.1s15.8,3.1,23.7,14.7c5.4,7.9,8.8,16.1,8.9,16.5.8,1.8-.1,4-2,4.7-1.8.8-4-.1-4.7-2-3.2-7.7-14.4-29.1-24.2-26.8-10,2.3-11.9,24.7-11.8,32.4c0,2-1.6,3.7-3.7,3.7c0,0,0,0,0,0Z" fill="#1d3370"/><path d="M267,217.3c-1.8,0-3.4-1.4-3.6-3.2c0-.3-.9-8.2-.6-16.8.5-12.8,3.4-20.2,8.8-22.7s12.4,0,20.8,7.4c5.6,5,10,10.3,10.1,10.6c1.2,1.6,1,3.9-.6,5.1s-3.9,1-5.1-.6c0,0-4.2-5.2-9.3-9.7-5.7-5-10.5-7.3-13-6.2-1.9.8-4.2,5.6-4.5,16.3-.3,8,.6,15.6.6,15.6.2,2-1.2,3.8-3.2,4-.1.2-.2.2-.4.2Z" fill="#1d3370"/><path d="M297.569022,124.110329l23.469592,23.482067" transform="matrix(.688554-.725185 0.725185 0.688554 31.889467 253.861593)" fill="none" stroke="#1d3370" stroke-width="8" stroke-linecap="round"/><path d="M297.569022,124.110329l23.469592,23.482067" transform="matrix(.999829 0.018492-.018492 0.999829-3.46764-36.913658)" fill="none" stroke="#1d3370" stroke-width="8" stroke-linecap="round"/></g></g><mask id="eaLTNgZdjJ029" mask-type="luminance" x="-150%" y="-150%" height="400%" width="400%"><path d="M192,0c0,19.2,9.6,48-9.6,38.4s-19.2,28.8,0,19.2s9.6,19.2,9.6,38.4v0c-19.2,0-48,9.6-38.4-9.6s-28.8-19.2-19.2,0-19.2,9.6-38.4,9.6c0-19.2-9.6-48,9.6-38.4s19.2-28.8,0-19.2-9.6-19.2-9.6-38.4h96Z" fill="#fff" stroke-width="10"/><path d="M192,0c0,19.2,9.6,48-9.6,38.4s-19.2,28.8,0,19.2s9.6,19.2,9.6,38.4v0c-19.2,0-48,9.6-38.4-9.6s-28.8-19.2-19.2,0-19.2,9.6-38.4,9.6c0-19.2-9.6-48,9.6-38.4s19.2-28.8,0-19.2-9.6-19.2-9.6-38.4" fill="none" stroke="#fff"/></mask></g></svg>
