<svg id="eflVa6yTcr21" xmlns="http://www.w3.org/2000/svg" xmlns:xlink="http://www.w3.org/1999/xlink" viewBox="0 0 288 288" shape-rendering="geometricPrecision" text-rendering="geometricPrecision" width="288" height="288"><defs><linearGradient id="eflVa6yTcr212-stroke" x1="0.5" y1="0" x2="0.5" y2="1" spreadMethod="pad" gradientUnits="objectBoundingBox" gradientTransform="translate(0 0)"><stop id="eflVa6yTcr212-stroke-0" offset="0%" stop-color="#76c559"/><stop id="eflVa6yTcr212-stroke-1" offset="100%" stop-color="#58919b"/></linearGradient><linearGradient id="eflVa6yTcr213-stroke" x1="0.5" y1="0" x2="0.5" y2="1" spreadMethod="pad" gradientUnits="objectBoundingBox" gradientTransform="translate(0 0)"><stop id="eflVa6yTcr213-stroke-0" offset="0%" stop-color="#64a681"/><stop id="eflVa6yTcr213-stroke-1" offset="100%" stop-color="#4b7cb6"/></linearGradient><linearGradient id="eflVa6yTcr214-stroke" x1="0.5" y1="0" x2="0.5" y2="1" spreadMethod="pad" gradientUnits="objectBoundingBox" gradientTransform="translate(0 0)"><stop id="eflVa6yTcr214-stroke-0" offset="0%" stop-color="#64a680"/><stop id="eflVa6yTcr214-stroke-1" offset="100%" stop-color="#5e9c8d"/></linearGradient><linearGradient id="eflVa6yTcr215-stroke" x1="90.416906" y1="124.13092" x2="90.416906" y2="152.452429" spreadMethod="pad" gradientUnits="userSpaceOnUse" gradientTransform="translate(0 0)"><stop id="eflVa6yTcr215-stroke-0" offset="0%" stop-color="#63a483"/><stop id="eflVa6yTcr215-stroke-1" offset="100%" stop-color="#5c9893"/></linearGradient><linearGradient id="eflVa6yTcr216-stroke" x1="0.5" y1="0" x2="0.5" y2="1" spreadMethod="pad" gradientUnits="objectBoundingBox" gradientTransform="translate(0 0)"><stop id="eflVa6yTcr216-stroke-0" offset="0%" stop-color="#599398"/><stop id="eflVa6yTcr216-stroke-1" offset="100%" stop-color="#4b7bb8"/></linearGradient><linearGradient id="eflVa6yTcr217-stroke" x1="0.5" y1="0" x2="0.5" y2="1" spreadMethod="pad" gradientUnits="objectBoundingBox" gradientTransform="translate(0 0)"><stop id="eflVa6yTcr217-stroke-0" offset="0%" stop-color="#4e81b0"/><stop id="eflVa6yTcr217-stroke-1" offset="100%" stop-color="#3f5787"/></linearGradient><linearGradient id="eflVa6yTcr218-stroke" x1="0.5" y1="0" x2="0.5" y2="1" spreadMethod="pad" gradientUnits="objectBoundingBox" gradientTransform="translate(0 0)"><stop id="eflVa6yTcr218-stroke-0" offset="0%" stop-color="#4e81b0"/><stop id="eflVa6yTcr218-stroke-1" offset="100%" stop-color="#3f5787"/></linearGradient><linearGradient id="eflVa6yTcr219-stroke" x1="0.5" y1="0" x2="0.5" y2="1" spreadMethod="pad" gradientUnits="objectBoundingBox" gradientTransform="translate(0 0)"><stop id="eflVa6yTcr219-stroke-0" offset="0%" stop-color="#558da0"/><stop id="eflVa6yTcr219-stroke-1" offset="100%" stop-color="#5186aa"/></linearGradient><linearGradient id="eflVa6yTcr220-stroke" x1="0.5" y1="0" x2="0.5" y2="1" spreadMethod="pad" gradientUnits="objectBoundingBox" gradientTransform="translate(0 0)"><stop id="eflVa6yTcr220-stroke-0" offset="0%" stop-color="#548aa4"/><stop id="eflVa6yTcr220-stroke-1" offset="100%" stop-color="#5084ac"/></linearGradient><linearGradient id="eflVa6yTcr223-stroke" x1="0.5" y1="0" x2="0.5" y2="1" spreadMethod="pad" gradientUnits="objectBoundingBox" gradientTransform="translate(0 0)"><stop id="eflVa6yTcr223-stroke-0" offset="0%" stop-color="#71bd63"/><stop id="eflVa6yTcr223-stroke-1" offset="100%" stop-color="#6cb36f"/></linearGradient><linearGradient id="eflVa6yTcr224-stroke" x1="0.5" y1="0" x2="0.5" y2="1" spreadMethod="pad" gradientUnits="objectBoundingBox" gradientTransform="translate(0 0)"><stop id="eflVa6yTcr224-stroke-0" offset="0%" stop-color="#6db56d"/><stop id="eflVa6yTcr224-stroke-1" offset="100%" stop-color="#69af75"/></linearGradient><linearGradient id="eflVa6yTcr225-stroke" x1="0.5" y1="0" x2="0.5" y2="1" spreadMethod="pad" gradientUnits="objectBoundingBox" gradientTransform="translate(0 0)"><stop id="eflVa6yTcr225-stroke-0" offset="0%" stop-color="#74c15e"/><stop id="eflVa6yTcr225-stroke-1" offset="100%" stop-color="#6fb968"/></linearGradient><linearGradient id="eflVa6yTcr227-stroke" x1="0.489655" y1="0" x2="0.5" y2="0.999021" spreadMethod="pad" gradientUnits="objectBoundingBox" gradientTransform="translate(0 0)"><stop id="eflVa6yTcr227-stroke-0" offset="0%" stop-color="#7ed348"/><stop id="eflVa6yTcr227-stroke-1" offset="100%" stop-color="#3e65d3"/></linearGradient></defs><g style="mix-blend-mode:multiply" opacity="0.15"><path d="M192,0c0,19.2,9.6,48-9.6,38.4s-19.2,28.8,0,19.2s9.6,19.2,9.6,38.4v0c-19.2,0-48,9.6-38.4-9.6s-28.8-19.2-19.2,0-19.2,9.6-38.4,9.6c0-19.2-9.6-48,9.6-38.4s19.2-28.8,0-19.2-9.6-19.2-9.6-38.4h96Z" fill="none" stroke="#000" stroke-width="2" stroke-miterlimit="1"/><path d="M192,0c0,19.2,9.6,48-9.6,38.4s-19.2,28.8,0,19.2s9.6,19.2,9.6,38.4c19.2,0,48-9.6,38.4,9.6s28.8,19.2,19.2,0s19.2-9.6,38.4-9.6" fill="none" stroke="#000" stroke-width="2" stroke-miterlimit="1"/><path d="M0,192c19.2,0,48,9.6,38.4-9.6s28.8-19.2,19.2,0s19.2,9.6,38.4,9.6v0c0-19.2,9.6-48-9.6-38.4s-19.2-28.8,0-19.2s9.6-19.2,9.6-38.4c-19.2,0-48-9.6-38.4,9.6s-28.8,19.2-19.2,0-19.2-9.6-38.4-9.6v96Z" fill="none" stroke="#000" stroke-width="2" stroke-miterlimit="1"/><path d="M192,96c-19.2,0-48,9.6-38.4-9.6s-28.8-19.2-19.2,0-19.2,9.6-38.4,9.6c0,19.2,9.6,48-9.6,38.4s-19.2,28.8,0,19.2s9.6,19.2,9.6,38.4v0c19.2,0,48,9.6,38.4-9.6s28.8-19.2,19.2,0s19.2,9.6,38.4,9.6v0c0-19.2,9.6-48-9.6-38.4s-19.2-28.8,0-19.2s9.6-19.2,9.6-38.4" fill="none" stroke="#000" stroke-width="2" stroke-miterlimit="1"/><path d="M288,192c-19.2,0-48-9.6-38.4,9.6s-28.8,19.2-19.2,0-19.2-9.6-38.4-9.6c0-19.2,9.6-48-9.6-38.4s-19.2-28.8,0-19.2s9.6-19.2,9.6-38.4c19.2,0,48-9.6,38.4,9.6s28.8,19.2,19.2,0s19.2-9.6,38.4-9.6v96Z" fill="none" stroke="#000" stroke-width="2" stroke-miterlimit="1"/><path d="M0,192c19.2,0,48,9.6,38.4-9.6s28.8-19.2,19.2,0s19.2,9.6,38.4,9.6c0,19.2-9.6,48,9.6,38.4s19.2,28.8,0,19.2-9.6,19.2-9.6,38.4" fill="none" stroke="#000" stroke-width="2" stroke-miterlimit="1"/><path d="M192,288h-96c0-19.2-9.6-48,9.6-38.4s19.2-28.8,0-19.2-9.6-19.2-9.6-38.4c19.2,0,48,9.6,38.4-9.6s28.8-19.2,19.2,0s19.2,9.6,38.4,9.6c0,19.2,9.6,48-9.6,38.4s-19.2,28.8,0,19.2s9.6,19.2,9.6,38.4Z" fill="none" stroke="#000" stroke-width="2" stroke-miterlimit="1"/><path d="M192,288c0-19.2,9.6-48-9.6-38.4s-19.2-28.8,0-19.2s9.6-19.2,9.6-38.4c19.2,0,48-9.6,38.4,9.6s28.8,19.2,19.2,0s19.2-9.6,38.4-9.6" fill="none" stroke="#000" stroke-width="2" stroke-miterlimit="1"/></g><g transform="matrix(.94 0 0 0.94 8.501194 8.59445)"><path d="M405.5,143.9c8.8,46.9-22.7,91.7-69.6,99.3l-91.4,15c-39,6.3-75.7-20.9-80.5-60.6-4.3-36,20.2-69.7,55.7-76.7.3,0,.6-.1.8-.1c16.3-3,31.2-10.7,43.1-22.2c12.6-12.2,29.2-20.6,48.2-23c44.2-5.6,85.6,24.6,93.7,68.3Z" transform="matrix(.770287 0 0 0.770289-81.186585-24.101769)" fill="none" stroke="url(#eflVa6yTcr212-stroke)" stroke-width="6"/><path d="M209.358375,225.915387c8.743398-5.389766,16.169297-11.378394,22.277698-19.403156s8.264307-15.809979,6.228173-20.48111q-2.036134-4.671131-9.701578-5.269993-20.720654,2.275679-20.840427,2.275679c-.119773,0-4.790903.718636-10.779531-3.233859q-5.988628-3.952495-11.576235-17.316273q15.292055-26.442513,1.274338-39.185891c-14.017717-12.743378-26.761099-7.00886-36.637218,1.911506s-35.044292,20.070821-53.840776,24.849589q-18.796484,4.778768-42.371734.955754" transform="translate(.000003 0.000001)" fill="none" stroke="url(#eflVa6yTcr213-stroke)" stroke-width="4"/><path d="M123.970874,140.056696q-1.282317-26.287505,4.70183-28.638419t20.303355,14.532929" transform="translate(.000001 0)" fill="none" stroke="url(#eflVa6yTcr214-stroke)" stroke-width="4"/><path d="M73.960501,152.452429q2.350914-26.501225,11.754575-28.210979q10.92809-1.986922,21.158234,22.440551" transform="translate(.000001 0.000002)" fill="none" stroke="url(#eflVa6yTcr215-stroke)" stroke-width="4"/><path d="M138.589155,170.300263q-12.423279,26.642505,5.060422,45.543803q10.206564,11.034123,26.271414,14.324119" fill="none" stroke="url(#eflVa6yTcr216-stroke)" stroke-width="4"/><path d="M206.843154,210.704272q3.832721,6.347945,2.874541,11.258621t-3.024828,10.793859L195.58453,247.95354q-1.796588,2.874542-3.71295,3.71295t-4.431586,1.197725h-60.604921q-1.077953-10.899304,5.030448-13.534301t13.893618-2.994314q-5.030449-6.46772-5.629311-11.61794t1.557044-11.138849" transform="translate(.000004 0.000002)" fill="none" stroke="url(#eflVa6yTcr217-stroke)" stroke-width="4" stroke-linecap="round"/><path d="M171.061782,209.960806q-3.111523,7.446077-2.87144,13.081005.335729,7.879816,5.74288,12.921479-9.970497.639424-14.118132,3.191815t-5.184326,13.079679" transform="translate(0-.178043)" fill="none" stroke="url(#eflVa6yTcr218-stroke)" stroke-width="4" stroke-linecap="round"/><path d="M153.965547,185.401874q-7.217253,6.892151-5.526725,11.313531t11.573612,3.120973" transform="translate(.000001 0.000002)" fill="none" stroke="url(#eflVa6yTcr219-stroke)" stroke-width="4" stroke-linecap="round"/><path d="M133.354115,192.098964q-9.493218,6.07773-8.777739,10.728348q1.040324,6.762109,12.939038,5.071583" transform="translate(-.06502 0.000001)" fill="none" stroke="url(#eflVa6yTcr220-stroke)" stroke-width="4"/><ellipse rx="4.918454" ry="4.918454" transform="matrix(.709056 0 0 0.709056 66.335197 95.082147)" fill="none" stroke="#69ae76" stroke-width="3"/><ellipse rx="4.918454" ry="4.918454" transform="matrix(.709056 0 0 0.709056 77.287631 101.572479)" fill="none" stroke="#67ab79" stroke-width="3"/><ellipse rx="11.499189" ry="11.499189" transform="matrix(.847687 0 0 0.847687 141.632071 69.250077)" fill="none" stroke="url(#eflVa6yTcr223-stroke)" stroke-width="3"/><ellipse rx="11.499189" ry="11.499189" transform="matrix(.847687 0 0 0.847687 174.142853 86.055168)" fill="none" stroke="url(#eflVa6yTcr224-stroke)" stroke-width="3"/><path d="M142.844706,45.12749L160.43508,64.131375" fill="none" stroke="url(#eflVa6yTcr225-stroke)" stroke-width="3" stroke-linecap="round"/><path d="M169.10406,69.513161l25.393689-.621524" transform="translate(.000001 0)" fill="none" stroke="#6eb86a" stroke-width="3" stroke-linecap="round"/></g><rect width="284" height="284" rx="50" ry="50" transform="translate(1.999999 2)" fill="none" stroke="url(#eflVa6yTcr227-stroke)" stroke-width="4"/></svg>
